<svg width="846" height="846" viewBox="0 0 846 846" fill="none" xmlns="http://www.w3.org/2000/svg">
<circle cx="423.077" cy="423.077" r="409.875" stroke="white" stroke-width="24.8646"/>
<g filter="url(#filter0_d_3187_2)">
<path d="M207.043 343.922C196.104 343.922 187.11 340.762 180.06 334.442C173.253 327.878 169.85 319.856 169.85 310.376C169.85 300.652 173.253 292.63 180.06 286.31C187.11 279.746 196.104 276.465 207.043 276.465C217.739 276.465 226.49 279.746 233.297 286.31C240.346 292.63 243.871 300.652 243.871 310.376C243.871 319.856 240.346 327.878 233.297 334.442C226.49 340.762 217.739 343.922 207.043 343.922ZM238.037 365.071V568.538H175.684V365.071H238.037ZM234.362 466.44C234.362 445.534 238.252 427.181 246.031 411.38C254.053 395.579 264.87 383.425 278.483 374.917C292.096 366.408 307.29 362.154 324.063 362.154C338.405 362.154 350.924 365.071 361.62 370.906C372.559 376.74 380.946 384.397 386.78 393.878V365.071H449.133V568.538H386.78V539.732C380.703 549.213 372.195 556.87 361.256 562.704C350.56 568.538 338.041 571.456 323.698 571.456C307.168 571.456 292.096 567.201 278.483 558.693C264.87 549.942 254.053 537.666 246.031 521.865C238.252 505.821 234.362 487.346 234.362 466.44ZM386.78 466.805C386.78 451.247 382.405 438.971 373.653 429.977C365.145 420.982 354.692 416.485 342.295 416.485C329.897 416.485 319.323 420.982 310.571 429.977C302.063 438.728 297.809 450.882 297.809 466.44C297.809 481.998 302.063 494.396 310.571 503.633C319.323 512.628 329.897 517.125 342.295 517.125C354.692 517.125 365.145 512.628 373.653 503.633C382.405 494.639 386.78 482.363 386.78 466.805ZM445.381 466.44C445.381 445.534 449.271 427.181 457.05 411.38C465.072 395.579 475.889 383.425 489.502 374.917C503.115 366.408 518.309 362.154 535.082 362.154C548.452 362.154 560.606 364.95 571.545 370.541C582.728 376.132 591.479 383.668 597.799 393.148V298.708H660.152V568.538H597.799V539.368C591.965 549.091 583.578 556.87 572.639 562.704C561.943 568.538 549.424 571.456 535.082 571.456C518.309 571.456 503.115 567.201 489.502 558.693C475.889 549.942 465.072 537.666 457.05 521.865C449.271 505.821 445.381 487.346 445.381 466.44ZM597.799 466.805C597.799 451.247 593.424 438.971 584.672 429.977C576.164 420.982 565.711 416.485 553.314 416.485C540.916 416.485 530.342 420.982 521.59 429.977C513.082 438.728 508.828 450.882 508.828 466.44C508.828 481.998 513.082 494.396 521.59 503.633C530.342 512.628 540.916 517.125 553.314 517.125C565.711 517.125 576.164 512.628 584.672 503.633C593.424 494.639 597.799 482.363 597.799 466.805Z" fill="white"/>
</g>
<defs>
<filter id="filter0_d_3187_2" x="155.905" y="276.465" width="518.192" height="322.88" filterUnits="userSpaceOnUse" color-interpolation-filters="sRGB">
<feFlood flood-opacity="0" result="BackgroundImageFix"/>
<feColorMatrix in="SourceAlpha" type="matrix" values="0 0 0 0 0 0 0 0 0 0 0 0 0 0 0 0 0 0 127 0" result="hardAlpha"/>
<feOffset dy="13.9448"/>
<feGaussianBlur stdDeviation="6.97239"/>
<feComposite in2="hardAlpha" operator="out"/>
<feColorMatrix type="matrix" values="0 0 0 0 0 0 0 0 0 0 0 0 0 0 0 0 0 0 0.25 0"/>
<feBlend mode="normal" in2="BackgroundImageFix" result="effect1_dropShadow_3187_2"/>
<feBlend mode="normal" in="SourceGraphic" in2="effect1_dropShadow_3187_2" result="shape"/>
</filter>
</defs>
</svg>
